<?xml version="1.0" encoding="iso-8859-1"?>
<!-- Generator: Adobe Illustrator 19.0.0, SVG Export Plug-In . SVG Version: 6.00 Build 0)  -->
<svg xmlns="http://www.w3.org/2000/svg" xmlns:xlink="http://www.w3.org/1999/xlink" version="1.1" id="Layer_1" x="0px" y="0px" viewBox="0 0 512 512" style="enable-background:new 0 0 512 512;" xml:space="preserve" width="512px" height="512px">
<g>
	<g>
		<path d="M512,298.157c0-18.549-10.806-34.618-26.451-42.255c1.964-5.174,3.05-10.777,3.05-16.631    c0-25.911-21.082-46.993-46.993-46.993H320.739c10.836-33.383,13.298-68.83,7.062-103.866    c-2.169-12.182-8.984-22.936-19.185-30.281c-11.135-8.017-25.2-10.893-38.593-7.896c-13.389,2.999-24.885,11.603-31.537,23.603    l-65.657,118.44h-26.823c-1.284-8.428-8.541-14.893-17.327-14.893H17.55c-9.692,0-17.55,7.858-17.55,17.55v239.593    c0,9.692,7.858,17.55,17.55,17.55h111.128c9.692,0,17.55-7.858,17.55-17.55v-1.046h19.743l19.933,9.934    c25.605,12.763,54.261,19.509,82.87,19.509h98.531c36.578,0,67.222-25.833,74.686-60.209    c20.601-4.981,35.952-23.561,35.952-45.671c0-4.587-0.673-9.019-1.905-13.214C496.643,338.852,512,320.27,512,298.157z     M111.128,416.978H35.099V212.483h76.029V416.978z M465.007,310.051H430.95h-37.693h-23.401c-9.692,0-17.55,7.858-17.55,17.55    s7.858,17.55,17.55,17.55h23.401h37.693c6.558,0,11.893,5.336,11.893,11.894c0,6.558-5.335,11.894-11.893,11.894h-4.758h-32.934    h-23.401c-9.692,0-17.55,7.858-17.55,17.55c0,9.692,7.858,17.55,17.55,17.55h23.401h11.472    c-6.61,14.044-20.901,23.788-37.423,23.788h-98.531c-23.203,0-46.445-5.472-67.212-15.823l-23.63-11.777    c-2.432-1.212-5.112-1.843-7.828-1.843h-23.875V227.377h36.939c6.379,0,12.257-3.462,15.349-9.042l70.667-127.482    c2.458-4.433,6.387-5.893,8.509-6.368c2.125-0.476,6.3-0.833,10.415,2.131c2.712,1.953,4.585,4.851,5.137,7.949    c6.507,36.562,1.7,73.651-13.893,107.237l-0.261,0.558c-2.556,5.436-2.154,11.803,1.066,16.873    c3.22,5.072,8.809,8.144,14.815,8.144h146.633c6.558,0,11.894,5.336,11.894,11.894c0,6.558-5.336,11.894-11.894,11.894h-48.349    h-23.401c-9.692,0-17.55,7.858-17.55,17.55c0,9.692,7.858,17.55,17.55,17.55h23.401h48.349h23.401    c6.558,0,11.894,5.335,11.894,11.893C476.901,304.715,471.566,310.051,465.007,310.051z" fill="#f5632a"/>
	</g>
</g>
<g>
</g>
<g>
</g>
<g>
</g>
<g>
</g>
<g>
</g>
<g>
</g>
<g>
</g>
<g>
</g>
<g>
</g>
<g>
</g>
<g>
</g>
<g>
</g>
<g>
</g>
<g>
</g>
<g>
</g>
</svg>
