<svg xmlns="http://www.w3.org/2000/svg" viewBox="0 0 512 512" width="512" height="512"><path d="M512 298.157c0-18.549-10.806-34.618-26.451-42.255a46.762 46.762 0 0 0 3.05-16.631c0-25.911-21.082-46.993-46.993-46.993H320.739c10.836-33.383 13.298-68.83 7.062-103.866-2.169-12.182-8.984-22.936-19.185-30.281a48.115 48.115 0 0 0-38.593-7.896 48.112 48.112 0 0 0-31.537 23.603l-65.657 118.44h-26.823c-1.284-8.428-8.541-14.893-17.327-14.893H17.55c-9.692 0-17.55 7.858-17.55 17.55v239.593c0 9.692 7.858 17.55 17.55 17.55h111.128c9.692 0 17.55-7.858 17.55-17.55v-1.046h19.743l19.933 9.934c25.605 12.763 54.261 19.509 82.87 19.509h98.531c36.578 0 67.222-25.833 74.686-60.209 20.601-4.981 35.952-23.561 35.952-45.671 0-4.587-.673-9.019-1.905-13.214C496.643 338.852 512 320.27 512 298.157zM111.128 416.978H35.099V212.483h76.029v204.495zm353.879-106.927h-95.151c-9.692 0-17.55 7.858-17.55 17.55s7.858 17.55 17.55 17.55h61.094c6.558 0 11.893 5.336 11.893 11.894s-5.335 11.894-11.893 11.894h-61.093c-9.692 0-17.55 7.858-17.55 17.55s7.858 17.55 17.55 17.55h34.873c-6.61 14.044-20.901 23.788-37.423 23.788h-98.531c-23.203 0-46.445-5.472-67.212-15.823l-23.63-11.777a17.552 17.552 0 0 0-7.828-1.843h-23.875V227.377h36.939a17.549 17.549 0 0 0 15.349-9.042l70.667-127.482c2.458-4.433 6.387-5.893 8.509-6.368 2.125-.476 6.3-.833 10.415 2.131 2.712 1.953 4.585 4.851 5.137 7.949 6.507 36.562 1.7 73.651-13.893 107.237l-.261.558a17.548 17.548 0 0 0 15.881 25.017h146.633c6.558 0 11.894 5.336 11.894 11.894s-5.336 11.894-11.894 11.894h-71.75c-9.692 0-17.55 7.858-17.55 17.55s7.858 17.55 17.55 17.55h95.151c6.558 0 11.894 5.335 11.894 11.893-.001 6.557-5.336 11.893-11.895 11.893z" fill="#f5632a"/></svg>